<svg aria-hidden="true" style="position: absolute; width: 0; height: 0; overflow: hidden;" version="1.1" xmlns="http://www.w3.org/2000/svg" xmlns:xlink="http://www.w3.org/1999/xlink">
<defs>
<symbol id="icon-facebook" viewBox="0 0 16 32">
<path fill="#fff" style="fill: var(--color1, #fff)" d="M14.275 15.98h-4.179v15.4h-6.332v-15.402h-3.010v-5.411h3.010v-3.5c0-2.506 1.185-6.426 6.388-6.426l4.691 0.019v5.253h-3.404c-0.557 0-1.343 0.282-1.343 1.476v3.186h4.733l-0.554 5.403z"></path>
</symbol>
<symbol id="icon-github" viewBox="0 0 32 32">
<path fill="#fff" style="fill: var(--color1, #fff)" d="M16.010 0.941c-8.277 0-15.069 6.793-15.069 15.069 0 7.064 4.957 13.479 11.537 15.069v-4.986c-0.652 0.144-1.252 0.147-1.916-0.048-0.89-0.264-1.614-0.857-2.15-1.761-0.343-0.576-0.949-1.204-1.582-1.158l-0.155-1.759c1.369-0.117 2.552 0.834 3.255 2.016 0.312 0.525 0.672 0.833 1.133 0.969 0.445 0.131 0.924 0.069 1.483-0.128 0.139-1.117 0.652-1.537 1.037-2.125-3.924-0.586-5.488-2.669-6.109-4.311-0.823-2.182-0.381-4.909 1.073-6.631 0.029-0.032 0.080-0.122 0.061-0.182-0.668-2.016 0.144-3.682 0.176-3.858 0.768 0.227 0.893-0.229 3.343 1.258l0.423 0.255c0.176 0.106 0.122 0.045 0.299 0.032 0.944-0.267 2.030-0.428 3.152-0.445l0.010-0c1.147 0.018 2.249 0.183 3.296 0.478l-0.090-0.022 0.138 0.014c-0.013-0.002 0.037-0.010 0.12-0.059 3.058-1.852 2.949-1.247 3.769-1.513 0.030 0.176 0.833 1.87 0.171 3.858-0.088 0.275 2.653 2.786 1.134 6.815-0.621 1.644-2.185 3.726-6.109 4.311 0.503 0.768 1.108 1.175 1.105 2.757v6.223c6.58-1.59 11.537-8.005 11.537-15.069 0-8.277-6.791-15.069-15.069-15.069z"></path>
</symbol>
<symbol id="icon-telegram" viewBox="0 0 40 32">
<path fill="#fff" style="fill: var(--color1, #fff)" d="M16.216 20.759l-0.636 8.345c0.909 0 1.303-0.366 1.775-0.802l4.263-3.802 8.836 6.038c1.621 0.841 2.762 0.398 3.198-1.391l5.8-25.362h0.002c0.514-2.237-0.867-3.11-2.446-2.562l-34.085 12.18c-2.325 0.841-2.291 2.053-0.396 2.602l8.715 2.53 20.243-11.821c0.953-0.588 1.817-0.264 1.105 0.326l-16.372 13.721z"></path>
</symbol>
</defs>
</svg>
