<svg aria-hidden="true" style="position:absolute;width:0;height:0" xmlns="http://www.w3.org/2000/svg" overflow="hidden">
    <defs>
        <symbol id="arrow-btn" viewBox="0 0 32 32"><path d="M7.218 25.649c-1.497 1.497-1.471 3.949 0.129 5.395 1.497 1.368 3.82 1.239 5.24-0.206l12.209-12.209c0.723-0.723 1.084-1.678 1.084-2.633s-0.361-1.91-1.084-2.633l-12.184-12.209c-1.42-1.42-3.769-1.575-5.24-0.207-1.575 1.446-1.626 3.898-0.129 5.395l7.795 7.847c1.007 1.007 1.007 2.633 0 3.64l-7.821 7.822z"></path></symbol> 
        <symbol id="burger" viewBox="0 0 48 32"><path d="M0 5.333v-5.333h48v5.333h-48zM0 18.667h48v-5.333h-48v5.333zM0 32h48v-5.333h-48v5.333z"></path></symbol>
        
    </defs>
  </defs>
</svg>