<svg
  aria-hidden="true"
  style="position:absolute;width:0;height:0"
  xmlns="http://www.w3.org/2000/svg"
  overflow="hidden"
>
    <defs>
        <symbol id="arrow-btn" viewBox="0 0 32 32"><path
        d="M7.218 25.649c-1.497 1.497-1.471 3.949 0.129 5.395 1.497 1.368 3.82 1.239 5.24-0.206l12.209-12.209c0.723-0.723 1.084-1.678 1.084-2.633s-0.361-1.91-1.084-2.633l-12.184-12.209c-1.42-1.42-3.769-1.575-5.24-0.207-1.575 1.446-1.626 3.898-0.129 5.395l7.795 7.847c1.007 1.007 1.007 2.633 0 3.64l-7.821 7.822z"
      /></symbol> 
        <symbol id="burger" viewBox="0 0 48 32"><path
        d="M0 5.333v-5.333h48v5.333h-48zM0 18.667h48v-5.333h-48v5.333zM0 32h48v-5.333h-48v5.333z"
      /></symbol>
        <symbol id="arrow-right" viewBox="0 0 32 32"><path
        d="M19.414 27.414l10-10a2 2 0 000-2.828l-10-10a2 2 0 10-2.828 2.828L23.172 14H4a2 2 0 100 4h19.172l-6.586 6.586c-.39.39-.586.902-.586 1.414s.195 1.024.586 1.414a2 2 0 002.828 0z"
      /></symbol>
        <symbol id="icon-close" viewBox="0 0 32 32"><path
        d="M31.439 3.166l-3.166-3.166-12.553 12.553-12.553-12.553-3.166 3.166 12.553 12.553-12.553 12.553 3.166 3.166 12.553-12.553 12.553 12.553 3.166-3.166-12.553-12.553 12.553-12.553z"
      /></symbol>
        <symbol id="icon-home" viewBox="0 0 35 32"><path
        fill="#d31342"
        style="fill: var(--accent-color)"
        d="M32.656 15.4c0.256-0.274 0.413-0.644 0.413-1.050 0-0.47-0.21-0.89-0.541-1.173l-0.002-0.002-14.78-12.755c-0.319-0.265-0.733-0.425-1.185-0.425-0.466 0-0.892 0.171-1.219 0.454l0.002-0.002-14.828 13.409c-0.316 0.282-0.515 0.69-0.515 1.145 0 0.42 0.169 0.801 0.443 1.077l-0-0 0.373 0.382c0.614 0.635 1.611 0.71 2.225 0.168l1.107-0.979v14.335c0.006 0.88 0.72 1.59 1.601 1.59 0.005 0 0.009-0 0.014-0h5.778c0.004 0 0.009 0 0.013 0 0.88 0 1.595-0.711 1.601-1.59v-10.029h7.374v10.029c-0.013 0.88 0.624 1.59 1.515 1.59h6.126c0.003 0 0.007 0 0.011 0 0.88 0 1.595-0.711 1.601-1.59v-14.133l0.686 0.592c0.376 0.326 1.169 0.064 1.766-0.587l0.422-0.454z"
      /></symbol>
        <symbol id="icon-facebook" viewBox="0 0 16 32"><path
        fill="#fff"
        style="fill: var(--color1, #fff)"
        d="M14.275 15.98h-4.179v15.4h-6.332v-15.402h-3.010v-5.411h3.010v-3.5c0-2.506 1.185-6.426 6.388-6.426l4.691 0.019v5.253h-3.404c-0.557 0-1.343 0.282-1.343 1.476v3.186h4.733l-0.554 5.403z"
      /></symbol>
        <symbol id="icon-github" viewBox="0 0 32 32"><path
        fill="#fff"
        style="fill: var(--color1, #fff)"
        d="M16.010 0.941c-8.277 0-15.069 6.793-15.069 15.069 0 7.064 4.957 13.479 11.537 15.069v-4.986c-0.652 0.144-1.252 0.147-1.916-0.048-0.89-0.264-1.614-0.857-2.15-1.761-0.343-0.576-0.949-1.204-1.582-1.158l-0.155-1.759c1.369-0.117 2.552 0.834 3.255 2.016 0.312 0.525 0.672 0.833 1.133 0.969 0.445 0.131 0.924 0.069 1.483-0.128 0.139-1.117 0.652-1.537 1.037-2.125-3.924-0.586-5.488-2.669-6.109-4.311-0.823-2.182-0.381-4.909 1.073-6.631 0.029-0.032 0.080-0.122 0.061-0.182-0.668-2.016 0.144-3.682 0.176-3.858 0.768 0.227 0.893-0.229 3.343 1.258l0.423 0.255c0.176 0.106 0.122 0.045 0.299 0.032 0.944-0.267 2.030-0.428 3.152-0.445l0.010-0c1.147 0.018 2.249 0.183 3.296 0.478l-0.090-0.022 0.138 0.014c-0.013-0.002 0.037-0.010 0.12-0.059 3.058-1.852 2.949-1.247 3.769-1.513 0.030 0.176 0.833 1.87 0.171 3.858-0.088 0.275 2.653 2.786 1.134 6.815-0.621 1.644-2.185 3.726-6.109 4.311 0.503 0.768 1.108 1.175 1.105 2.757v6.223c6.58-1.59 11.537-8.005 11.537-15.069 0-8.277-6.791-15.069-15.069-15.069z"
      /></symbol>
        <symbol id="icon-telegram" viewBox="0 0 40 32"><path
        fill="#fff"
        style="fill: var(--color1, #fff)"
        d="M16.216 20.759l-0.636 8.345c0.909 0 1.303-0.366 1.775-0.802l4.263-3.802 8.836 6.038c1.621 0.841 2.762 0.398 3.198-1.391l5.8-25.362h0.002c0.514-2.237-0.867-3.11-2.446-2.562l-34.085 12.18c-2.325 0.841-2.291 2.053-0.396 2.602l8.715 2.53 20.243-11.821c0.953-0.588 1.817-0.264 1.105 0.326l-16.372 13.721z"
      /></symbol>
    </defs>
</svg>
