<svg aria-hidden="true" style="position:absolute;width:0;height:0" xmlns="http://www.w3.org/2000/svg" overflow="hidden">
    <defs>
        <symbol id="arrow-btn" viewBox="0 0 32 32"><path d="M7.218 25.649c-1.497 1.497-1.471 3.949 0.129 5.395 1.497 1.368 3.82 1.239 5.24-0.206l12.209-12.209c0.723-0.723 1.084-1.678 1.084-2.633s-0.361-1.91-1.084-2.633l-12.184-12.209c-1.42-1.42-3.769-1.575-5.24-0.207-1.575 1.446-1.626 3.898-0.129 5.395l7.795 7.847c1.007 1.007 1.007 2.633 0 3.64l-7.821 7.822z"></path></symbol> 
        <symbol id="burger" viewBox="0 0 48 32"><path d="M0 5.333v-5.333h48v5.333h-48zM0 18.667h48v-5.333h-48v5.333zM0 32h48v-5.333h-48v5.333z"></path></symbol>
        <symbol id="arrow-right" viewBox="0 0 32 32"><path d="M19.414 27.414l10-10a2 2 0 000-2.828l-10-10a2 2 0 10-2.828 2.828L23.172 14H4a2 2 0 100 4h19.172l-6.586 6.586c-.39.39-.586.902-.586 1.414s.195 1.024.586 1.414a2 2 0 002.828 0z"/></symbol>
        <symbol id="icon-close" viewBox="0 0 32 32"><path d="M31.439 3.166l-3.166-3.166-12.553 12.553-12.553-12.553-3.166 3.166 12.553 12.553-12.553 12.553 3.166 3.166 12.553-12.553 12.553 12.553 3.166-3.166-12.553-12.553 12.553-12.553z"></path></symbol>
    </defs>
</svg>